# xmcd
#
# Track frame offsets: 
#        150
#        17324
#        32828
#        54622
#        70564
#        92412
#        125895
#        154464
#        174516
#        228505
#
# Disc length: 3205 seconds
#
# Revision: 1
# Processed by: cddbd v1.5.2PL0 Copyright (c) Steve Scherf et al.
# Submitted via: ExactAudioCopyFreeDBPlugin 1.0
#
DISCID=7b0c830a
DTITLE=Godard-Bebelaar - Dedications
DYEAR=2011
DGENRE=Jazz
TTITLE0=Natuschkas Song
TTITLE1=One For Vince
TTITLE2=Kiwus
TTITLE3=Anniversary Song
TTITLE4=Keep At It
TTITLE5=Archangelika
TTITLE6=Philtre
TTITLE7=Pantheon
TTITLE8=Round Midnight  The Lion Sleeps Tonight
TTITLE9=Ferma L'Ali
EXTD=YEAR: 2011
EXTT0=
EXTT1=
EXTT2=
EXTT3=
EXTT4=
EXTT5=
EXTT6=
EXTT7=
EXTT8=
EXTT9=
PLAYORDER=
